{"title":"Mr.Robot Season 01E1 eps1.0_hellofriend.mov.mp4","uid":12363848,"size":1127198418,"categoryP":"video","categoryS":"tv_shows","magnet":"?xt=urn:btih:2f2b8c151bd7bf0f50770ac73d88f1b4d5f04757&amp;dn=Mr.Robot+Season+01E1+eps1.0_hellofriend.mov.mp4&amp;tr=udp%3A%2F%2Ftracker.openbittorrent.com%3A80&amp;tr=udp%3A%2F%2Fopen.demonii.com%3A1337&amp;tr=udp%3A%2F%2Ftracker.coppersurfer.tk%3A6969&amp;tr=udp%3A%2F%2Fexodus.desync.com%3A6969","seeders":0,"leechers":1,"uploader":"fsociety.","files":1,"time":1441569972,"description":"General\nComplete name                            : eps1.0_hellofriend.mov.mp4\nFormat                                   : MPEG-4\nFormat profile                           : Base Media\nCodec ID                                 : isom\nFile size                                : 1.05 GiB\nDuration                                 : 1h 4mn\nOverall bit rate mode                    : Variable\nOverall bit rate                         : 2 314 Kbps\nMovie name                               : eps1.0_hellofriend.mov\nRecorded date                            : 0\nTagged date                              : UTC 2015-09-06 17:03:14\nWriting application                      : Lavf55.33.100\nCover                                    : Yes\n\nVideo\nID                                       : 1\nFormat                                   : AVC\nFormat/Info                              : Advanced Video Codec\nFormat profile                           : &lt;a class=&quot;__cf_email__&quot; href=&quot;/cdn-cgi/l/email-protection&quot; data-cfemail=&quot;0c4e6d7f69606562694c403f223d&quot;&gt;[email&amp;#160;protected]&lt;/a&gt;&lt;script data-cfhash='f9e31' type=&quot;text/javascript&quot;&gt;\n/* &lt;![CDATA[ */!function(){try{var t=&quot;currentScript&quot;in document?document.currentScript:function(){for(var t=document.getElementsByTagName(&quot;script&quot;),e=t.length;e--;)if(t[e].getAttribute(&quot;data-cfhash&quot;))return t[e]}();if(t&amp;&amp;t.previousSibling){var e,r,n,i,c=t.previousSibling,a=c.getAttribute(&quot;data-cfemail&quot;);if(a){for(e=&quot;&quot;,r=parseInt(a.substr(0,2),16),n=2;a.length-n;n+=2)i=parseInt(a.substr(n,2),16)^r,e+=String.fromCharCode(i);e=document.createTextNode(e),c.parentNode.replaceChild(e,c)}t.parentNode.removeChild(t);}}catch(u){}}()/* ]]&gt; */&lt;/script&gt;\nFormat settings, CABAC                   : No\nFormat settings, ReFrames                : 1 frame\nCodec ID                                 : avc1\nCodec ID/Info                            : Advanced Video Coding\nDuration                                 : 1h 4mn\nBit rate                                 : 2 181 Kbps\nWidth                                    : 1 280 pixels\nHeight                                   : 720 pixels\nDisplay aspect ratio                     : 16:9\nFrame rate mode                          : Constant\nFrame rate                               : 25.000 fps\nColor space                              : YUV\nChroma subsampling                       : 4:2:0\nBit depth                                : 8 bits\nScan type                                : Progressive\nBits/(Pixel*Frame)                       : 0.095\nStream size                              : 1 013 MiB (94%)\nWriting library                          : x264 core 142\n\n\nAudio\nID                                       : 2\nFormat                                   : AAC\nFormat/Info                              : Advanced Audio Codec\nFormat profile                           : LC\nCodec ID                                 : 40\nDuration                                 : 1h 4mn\nBit rate mode                            : Variable\nBit rate                                 : 128 Kbps\nMaximum bit rate                         : 176 Kbps\nChannel(s)                               : 2 channels\nChannel positions                        : Front: L R\nSampling rate                            : 44.1 KHz\nCompression mode                         : Lossy\nStream size                              : 59.4 MiB (6%)\nLanguage                                 : English","torrent":{"xt":"urn:btih:2f2b8c151bd7bf0f50770ac73d88f1b4d5f04757","amp;dn":"Mr.Robot+Season+01E1+eps1.0_hellofriend.mov.mp4","amp;tr":["udp%3A%2F%2Ftracker.openbittorrent.com%3A80","udp%3A%2F%2Fopen.demonii.com%3A1337","udp%3A%2F%2Ftracker.coppersurfer.tk%3A6969","udp%3A%2F%2Fexodus.desync.com%3A6969"],"infoHash":"2f2b8c151bd7bf0f50770ac73d88f1b4d5f04757","infoHashBuffer":{"type":"Buffer","data":[47,43,140,21,27,215,191,15,80,119,10,199,61,136,241,180,213,240,71,87]},"announce":[],"urlList":[]}}